<svg xmlns="http://www.w3.org/2000/svg" width="40" height="40" viewBox="0 0 40 40">
  <defs>
    <style>
      .cls-1 {
        fill: none;
      }

      .cls-2 {
        fill: rgba(179,208,250,0.64);
      }

      .cls-3 {
        fill: rgba(2,96,246,0.64);
      }
    </style>
  </defs>
  <g id="组_11154" data-name="组 11154" transform="translate(20 -12413)">
    <rect id="矩形_2884" data-name="矩形 2884" class="cls-1" width="40" height="40" transform="translate(-20 12413)"/>
    <g id="组_11194" data-name="组 11194" transform="translate(-60.947 12416.797)">
      <path id="路径_50398" data-name="路径 50398" class="cls-2" d="M57.236,31.292H49.9a3.611,3.611,0,0,1-3.712-3.509V3.51A3.611,3.611,0,0,1,49.9,0H67.865A3.611,3.611,0,0,1,71.526,3.51V14.24a1.267,1.267,0,0,1-2.47,0V3.51a1.267,1.267,0,0,0-1.267-1.166H49.9A1.267,1.267,0,0,0,48.634,3.51V27.783A1.267,1.267,0,0,0,49.9,28.961h7.335a1.166,1.166,0,0,1,0,2.331Z" transform="translate(0 0)"/>
      <path id="路径_50399" data-name="路径 50399" class="cls-3" d="M238.594,214.685H226.875a1.166,1.166,0,1,1,0-2.331h11.718a1.166,1.166,0,0,1,0,2.331Zm0,5.942H226.875a1.166,1.166,0,1,1,0-2.331h11.718a1.166,1.166,0,0,1,0,2.331Zm10.92,8.653c0-.671-.443-1.013-1.178-1.077a1.52,1.52,0,0,1-1.495-1.862c.279-1.267.215-1.444-.975-2.1l-.76-.418a1.622,1.622,0,0,0-2.268.19c-.874.684-1.267.671-2.1,0a1.622,1.622,0,0,0-2.268-.215l-1.267.7A1.191,1.191,0,0,0,236.58,226c.393,1.267-.177,2.078-1.546,2.217-.57.063-.95.367-.975.874a23.75,23.75,0,0,0,0,3c0,.646.431.975,1.14,1.039a1.558,1.558,0,0,1,1.546,1.824c-.253,1.33-.253,1.47,1.013,2.154.266.152.532.317.811.456a1.546,1.546,0,0,0,2.04-.266c.975-.836,1.267-.823,2.293,0a12.3,12.3,0,0,0,1.267.735c.925-.583,1.837-1.089,2.66-1.7a1.128,1.128,0,0,0,.114-1c-.469-1.14.279-2.141,1.6-2.268a.868.868,0,0,0,.937-.823A26.342,26.342,0,0,0,249.514,229.279Zm-7.766,4.409a3.04,3.04,0,1,1,2.163-.89A3.053,3.053,0,0,1,241.748,233.688Z" transform="translate(-173.833 -205.626)"/>
      <path id="路径_50403" data-name="路径 50403" class="cls-3" d="M231.594,220.627h-4.718a1.166,1.166,0,1,1,0-2.331h4.718a1.166,1.166,0,0,1,0,2.331Z" transform="translate(-173.833 -199.076)"/>
    </g>
  </g>
</svg>
