<svg xmlns="http://www.w3.org/2000/svg" width="28" height="28" viewBox="0 0 28 28">
  <defs>
    <style>
      .cls-1 {
        fill: none;
      }

      .cls-2 {
        fill: #009fdf;
      }
    </style>
  </defs>
  <g id="组_10639" data-name="组 10639" transform="translate(-945.987 -526.052)">
    <rect id="矩形_2545" data-name="矩形 2545" class="cls-1" width="28" height="28" transform="translate(945.987 526.052)"/>
    <path id="路径_49773" data-name="路径 49773" class="cls-2" d="M965.017,550.171l3.567-3.87a1.466,1.466,0,0,0,.381-1V531.619a1.375,1.375,0,0,0-1.321-1.417h-15.19a1.372,1.372,0,0,0-1.317,1.412v17.557a1.374,1.374,0,0,0,1.322,1.417h11.685A1.28,1.28,0,0,0,965.017,550.171ZM955.5,534.856h9.209a.775.775,0,0,1,.771.778.777.777,0,0,1-.769.77H955.5a.774.774,0,0,1,0-1.548Zm-.007,4.756h9.216a.775.775,0,0,1,0,1.549H955.5a.775.775,0,0,1-.005-1.549Zm3.807,6.14h-3.8a.775.775,0,0,1,0-1.549h3.8a.775.775,0,0,1,0,1.549Z"/>
  </g>
</svg>
