<svg xmlns="http://www.w3.org/2000/svg" width="28" height="28" viewBox="0 0 28 28">
  <defs>
    <style>
      .cls-1 {
        fill: none;
      }

      .cls-2 {
        fill: #75787b;
        stroke: #75787b;
        stroke-width: 0.3px;
      }
    </style>
  </defs>
  <g id="组_10745" data-name="组 10745" transform="translate(-7934 -8732)">
    <rect id="矩形_2545" data-name="矩形 2545" class="cls-1" width="28" height="28" transform="translate(7934 8732)"/>
    <g id="组_10640" data-name="组 10640" transform="translate(7757.496 8600.986)">
      <path id="路径_49771" data-name="路径 49771" class="cls-2" d="M194.6,155.7H182.971a1.521,1.521,0,0,1-1.467-1.567V136.581a1.52,1.52,0,0,1,1.467-1.567h15.194a1.521,1.521,0,0,1,1.467,1.567v13.683a1.612,1.612,0,0,1-.421,1.1l-3.566,3.869a1.425,1.425,0,0,1-1.045.469Zm-11.628-19.439c-.1,0-.219.132-.219.319v17.554c0,.189.115.319.219.319H194.6a.182.182,0,0,0,.128-.065l3.566-3.869a.383.383,0,0,0,.091-.254V136.582c0-.189-.115-.319-.219-.319H182.971Z"/>
      <path id="路径_49772" data-name="路径 49772" class="cls-2" d="M334.955,319.3h-9.211a.624.624,0,0,1,0-1.248h9.209a.624.624,0,0,1,0,1.248Zm0,4.756h-9.211a.624.624,0,1,1,0-1.248h9.209a.624.624,0,0,1,0,1.248Zm-5.412,4.591h-3.8a.624.624,0,0,1,0-1.248h3.8a.624.624,0,0,1,0,1.248Z" transform="translate(-139.727 -178.084)"/>
    </g>
  </g>
</svg>
