<svg xmlns="http://www.w3.org/2000/svg" width="28" height="28" viewBox="0 0 28 28">
  <defs>
    <style>
      .cls-1 {
        fill: none;
      }

      .cls-2 {
        fill: #75787b;
      }
    </style>
  </defs>
  <g id="组_10746" data-name="组 10746" transform="translate(-7934 -8732)">
    <rect id="矩形_2545" data-name="矩形 2545" class="cls-1" width="28" height="28" transform="translate(7934 8732)"/>
    <path id="路径_49774" data-name="路径 49774" class="cls-2" d="M19.257,15.171H10.808v3.3H17.5a.782.782,0,0,1,0,1.565H2.242a.782.782,0,1,1,0-1.565h7v-3.3H.8a.782.782,0,0,1-.782-.782V.8A.782.782,0,0,1,.8.013H19.257A.782.782,0,0,1,20.039.8V14.388a.782.782,0,0,1-.782.782ZM18.474,1.577H1.577V13.606h16.9V1.577ZM4.863,6.408a.782.782,0,0,1,.782.782v3.892a.782.782,0,1,1-1.564,0V7.191a.782.782,0,0,1,.782-.782ZM9.928,2.282a.782.782,0,0,1,.782.782v8.019a.782.782,0,1,1-1.565,0V3.064A.782.782,0,0,1,9.928,2.282Zm5.065,2.19a.782.782,0,0,1,.782.783v5.828a.782.782,0,0,1-1.565,0V5.255a.783.783,0,0,1,.782-.783Z" transform="translate(7937.974 8735.975)"/>
  </g>
</svg>
