<svg xmlns="http://www.w3.org/2000/svg" width="28" height="28" viewBox="0 0 28 28">
  <defs>
    <style>
      .cls-1 {
        fill: none;
      }

      .cls-2 {
        fill: #009fdf;
      }
    </style>
  </defs>
  <g id="组_10639" data-name="组 10639" transform="translate(-7934 -8732)">
    <rect id="矩形_2545" data-name="矩形 2545" class="cls-1" width="28" height="28" transform="translate(7934 8732)"/>
    <path id="减去_13" data-name="减去 13" class="cls-2" d="M13.484-393.973H-1.77a.783.783,0,0,1-.782-.783.783.783,0,0,1,.782-.782h7v-3.3H-3.218A.783.783,0,0,1-4-399.624v-13.594A.783.783,0,0,1-3.218-414H15.244a.783.783,0,0,1,.782.782v13.594a.783.783,0,0,1-.782.782H6.8v3.3h6.688a.783.783,0,0,1,.782.782A.783.783,0,0,1,13.484-393.973Zm-2.5-15.567a.783.783,0,0,0-.783.782v5.828a.783.783,0,0,0,.783.782.783.783,0,0,0,.782-.782v-5.828A.783.783,0,0,0,10.981-409.54Zm-5.065-2.191a.783.783,0,0,0-.783.782v8.019a.783.783,0,0,0,.783.782.783.783,0,0,0,.782-.782v-8.019A.783.783,0,0,0,5.916-411.731ZM.85-407.6a.783.783,0,0,0-.782.783v3.892a.783.783,0,0,0,.783.782.783.783,0,0,0,.782-.782v-3.892A.783.783,0,0,0,.85-407.6Z" transform="translate(7941.987 9149.987)"/>
  </g>
</svg>
