<svg xmlns="http://www.w3.org/2000/svg" width="28" height="28" viewBox="0 0 28 28">
  <defs>
    <style>
      .cls-1 {
        fill: none;
      }

      .cls-2 {
        fill: #b1d0fe;
      }

      .cls-3 {
        fill: #0060f9;
      }
    </style>
  </defs>
  <g id="组_11177" data-name="组 11177" transform="translate(19.765 -12412.865)">
    <rect id="矩形_2884" data-name="矩形 2884" class="cls-1" width="28" height="28" transform="translate(-19.765 12412.865)"/>
    <g id="组_11179" data-name="组 11179" transform="translate(-13.982 12415.871)">
      <path id="路径_50406" data-name="路径 50406" class="cls-2" d="M364.25,242.223a1.274,1.274,0,0,1-1.242-1.3v-1.943a1.2,1.2,0,0,1,.052-.367,3.251,3.251,0,0,1-.052-.611v-4.537a3.5,3.5,0,0,1,3.4-3.573h.621a3.5,3.5,0,0,1,3.4,3.573V238a3.254,3.254,0,0,1-.052.611,1.2,1.2,0,0,1,.052.367v1.943a1.274,1.274,0,0,1-1.242,1.3Z" transform="translate(-358.672 -226.634)"/>
      <path id="路径_50407" data-name="路径 50407" class="cls-3" d="M181.5,70.122l-1.026-2.908V59.688a6.958,6.958,0,0,0-13.916,0v7.526l-1.051,2.908A.816.816,0,0,0,166,71.16a.7.7,0,0,0,.269.049h14.466a.814.814,0,0,0,.806-.806A1.109,1.109,0,0,0,181.5,70.122Zm-14.087-.538.709-1.955a.717.717,0,0,0,.049-.281V59.688a5.339,5.339,0,0,1,10.678,0v7.673a.658.658,0,0,0,.049.269l.7,1.955Zm3.164,2.578a2.92,2.92,0,0,0,5.84,0v-.1h-5.84Z" transform="translate(-165.464 -52.736)"/>
    </g>
  </g>
</svg>
