<svg xmlns="http://www.w3.org/2000/svg" width="24" height="24" viewBox="0 0 24 24">
  <defs>
    <style>
      .cls-1 {
        fill: none;
      }

      .cls-2 {
        fill: #009fdf;
        stroke: #009fdf;
        stroke-width: 0.4px;
      }
    </style>
  </defs>
  <g id="组_10595" data-name="组 10595" transform="translate(-1126 -490)">
    <rect id="矩形_2483" data-name="矩形 2483" class="cls-1" width="24" height="24" transform="translate(1126 490)"/>
    <g id="组_10599" data-name="组 10599" transform="translate(960.1 386.4)">
      <path id="路径_49759" data-name="路径 49759" class="cls-2" d="M182.882,113.768v-4.636a3.537,3.537,0,0,0-3.532-3.532h-3.363a3.537,3.537,0,0,0-3.532,3.532v4.636H168.9v12.648h17.573V113.768Zm-9.249-4.633a2.356,2.356,0,0,1,2.354-2.354h3.363a2.356,2.356,0,0,1,2.354,2.354v4.636h-8.071Zm11.664,16.1H170.078V114.946h15.217v10.291Z" transform="translate(0)"/>
      <path id="路径_49760" data-name="路径 49760" class="cls-2" d="M426.639,556.775v2.764h1.178v-2.766a2.224,2.224,0,1,0-1.178,0Zm.587-3.2a1.048,1.048,0,1,1-1.048,1.047A1.049,1.049,0,0,1,427.226,553.578Z" transform="translate(-249.541 -435.356)"/>
    </g>
  </g>
</svg>
