<?xml version="1.0" standalone="no"?><!DOCTYPE svg PUBLIC "-//W3C//DTD SVG 1.1//EN" "http://www.w3.org/Graphics/SVG/1.1/DTD/svg11.dtd"><svg t="1650529835233" class="icon" viewBox="0 0 1024 1024" version="1.1" xmlns="http://www.w3.org/2000/svg" p-id="2790" xmlns:xlink="http://www.w3.org/1999/xlink" width="200" height="200"><defs><style type="text/css">@font-face { font-family: feedback-iconfont; src: url("//at.alicdn.com/t/font_1031158_u69w8yhxdu.woff2?t=1630033759944") format("woff2"), url("//at.alicdn.com/t/font_1031158_u69w8yhxdu.woff?t=1630033759944") format("woff"), url("//at.alicdn.com/t/font_1031158_u69w8yhxdu.ttf?t=1630033759944") format("truetype"); }
</style></defs><path d="M829.31 607.6L548.07 234.1c-12.93-19.17-41.01-19.61-54.82-0.89L197.3 606.71c-16.05 22.28-0.45 53.49 27.19 53.49h139.06v173.38c0 26.3 21.39 48.14 48.14 48.14H612.7c26.29 0 48.13-21.39 48.13-48.14V660.2h140.4c27.19 0 43.24-30.31 28.08-52.6z" p-id="2791" fill="#febe51"></path><path d="M226.72 218.06h570.5c20.95 0 37.89-16.94 37.89-37.88s-16.94-37.88-37.89-37.88h-570.5c-20.95 0-37.88 16.94-37.88 37.88s16.94 37.88 37.88 37.88z" p-id="2792" fill="#febe51"></path></svg>