<svg xmlns="http://www.w3.org/2000/svg" width="28" height="28" viewBox="0 0 28 28">
  <defs>
    <style>
      .cls-1 {
        fill: none;
      }

      .cls-2 {
        fill: #009fdf;
      }
    </style>
  </defs>
  <g id="组_10639" data-name="组 10639" transform="translate(-7934 -8732)">
    <rect id="矩形_2545" data-name="矩形 2545" class="cls-1" width="28" height="28" transform="translate(7934 8732)"/>
    <g id="组_10637" data-name="组 10637" transform="translate(7867.286 8597.184)">
      <path id="路径_49769" data-name="路径 49769" class="cls-2" d="M82.34,157.276a3.471,3.471,0,0,1-.595-.082l-.128-.047-4.5-2.682a8.747,8.747,0,0,0-1.318-.21h-.082l-3.277-.385a1.832,1.832,0,0,1-1.784-1.831v-5.947a1.864,1.864,0,0,1,1.784-1.831l3.7-.513a4.394,4.394,0,0,0,1.271-.21l4.21-3.02.082-.047a1.78,1.78,0,0,1,1.656.21,1.866,1.866,0,0,1,.77,1.493V155.4a1.883,1.883,0,0,1-.77,1.493,1.409,1.409,0,0,1-1.015.385Z"/>
      <path id="路径_49770" data-name="路径 49770" class="cls-2" d="M747.262,226.348a.85.85,0,0,1-.63-.315.686.686,0,0,1,.245-.945c1.516-.851,2.542-2.962,2.542-5.248,0-2.46-1.178-4.664-2.834-5.376a.6.6,0,0,1-.338-.9.725.725,0,0,1,.98-.315c2.2.945,3.662,3.592,3.662,6.589,0,2.775-1.271,5.294-3.23,6.367A.519.519,0,0,1,747.262,226.348Z" transform="translate(-660.117 -71.16)"/>
    </g>
  </g>
</svg>
