<svg xmlns="http://www.w3.org/2000/svg" width="24" height="24" viewBox="0 0 24 24">
  <defs>
    <style>
      .cls-1 {
        fill: none;
      }

      .cls-2 {
        fill: #009fdf;
      }
    </style>
  </defs>
  <g id="组_10594" data-name="组 10594" transform="translate(-1126 -490)">
    <rect id="矩形_2483" data-name="矩形 2483" class="cls-1" width="24" height="24" transform="translate(1126 490)"/>
    <path id="联合_16" data-name="联合 16" class="cls-2" d="M-3246-4952.214v-1.4h0a.749.749,0,0,1,.025-.164c1.26-4.649,3.775-7.416,7.477-8.194a5.277,5.277,0,0,1-2.845-5.931,5.279,5.279,0,0,1,5.145-4.1,5.278,5.278,0,0,1,5.143,4.1,5.278,5.278,0,0,1-2.844,5.931c3.7.779,6.217,3.545,7.476,8.194a.751.751,0,0,1,.022.273v1.291Zm18.058-1.4c-1.357-4.774-4.072-7.078-8.255-7.078s-6.9,2.3-8.256,7.078Zm-12.025-13.109a3.769,3.769,0,0,0,3.77,3.77,3.769,3.769,0,0,0,3.77-3.77,3.77,3.77,0,0,0-3.77-3.77A3.769,3.769,0,0,0-3239.967-4966.723Z" transform="translate(4374.198 5464.106)"/>
  </g>
</svg>
